<svg width="22" height="18" viewBox="0 0 22 18" fill="none" xmlns="http://www.w3.org/2000/svg">
<path fill-rule="evenodd" clip-rule="evenodd" d="M11.4762 1.75C8.7261 1.75 6.5119 3.95083 6.5119 6.64706C6.5119 7.10922 6.5766 7.55551 6.69729 7.97813C7.19448 8.12162 7.65991 8.3389 8.08045 8.61709C8.42592 8.84561 8.52072 9.31093 8.29219 9.6564C8.06366 10.0019 7.59835 10.0967 7.25288 9.86814C6.87207 9.61623 6.43917 9.43553 5.97329 9.34513C5.75147 9.30209 5.52165 9.27941 5.28571 9.27941C3.3246 9.27941 1.75 10.8482 1.75 12.7647C1.75 14.6812 3.3246 16.25 5.28571 16.25H15.2857C18.0358 16.25 20.25 14.0492 20.25 11.3529C20.25 9.21622 18.8607 7.39087 16.9124 6.72463C16.4038 6.55072 15.8568 6.45588 15.2857 6.45588C14.7031 6.45588 14.1455 6.55458 13.6283 6.73526C13.2372 6.87185 12.8095 6.66557 12.6729 6.27453C12.5363 5.88348 12.7426 5.45575 13.1336 5.31916C13.8079 5.08364 14.5326 4.95588 15.2857 4.95588C15.5812 4.95588 15.8723 4.97555 16.1577 5.01367C15.477 3.11631 13.6422 1.75 11.4762 1.75ZM17.8314 5.47127C17.2724 2.49369 14.6343 0.25 11.4762 0.25C7.91446 0.25 5.0119 3.10572 5.0119 6.64706C5.0119 7.03413 5.04673 7.41355 5.11351 7.78228C2.41987 7.87207 0.25 10.0605 0.25 12.7647C0.25 15.5264 2.51296 17.75 5.28571 17.75H15.2857C18.8474 17.75 21.75 14.8943 21.75 11.3529C21.75 8.70929 20.1313 6.44751 17.8314 5.47127Z" fill="#F7F7F7"/>
</svg>
