<svg width="28" height="28" viewBox="0 0 28 28" fill="none" xmlns="http://www.w3.org/2000/svg">
<path d="M15.1875 1.33333C15.1875 0.677494 14.6559 0.145832 14 0.145832C13.3442 0.145832 12.8125 0.677494 12.8125 1.33333L12.8125 12.8125H1.33337C0.677536 12.8125 0.145874 13.3442 0.145874 14C0.145874 14.6558 0.677536 15.1875 1.33337 15.1875H12.8125V26.6667C12.8125 27.3225 13.3442 27.8542 14 27.8542C14.6559 27.8542 15.1875 27.3225 15.1875 26.6667V15.1875H26.6667C27.3225 15.1875 27.8542 14.6558 27.8542 14C27.8542 13.3442 27.3225 12.8125 26.6667 12.8125H15.1875L15.1875 1.33333Z" fill="#1F241E"/>
</svg>
