<svg width="20" height="20" viewBox="0 0 20 20" fill="none" xmlns="http://www.w3.org/2000/svg">
<path d="M17.3077 10C17.3077 14.0359 14.0359 17.3077 10 17.3077M17.3077 10C17.3077 5.96407 14.0359 2.69231 10 2.69231M17.3077 10H19.5M10 17.3077C5.96407 17.3077 2.69231 14.0359 2.69231 10M10 17.3077V19.5M2.69231 10C2.69231 5.96407 5.96407 2.69231 10 2.69231M2.69231 10H0.5M10 2.69231V0.5M3.28249 3.28249L4.83268 4.83268M15.1673 15.1673L16.7175 16.7175M16.7175 3.28249L15.1673 4.83268M4.8327 15.1673L3.2825 16.7175" stroke="white" stroke-linecap="round"/>
</svg>
