<svg width="20" height="24" viewBox="0 0 20 24" fill="none" xmlns="http://www.w3.org/2000/svg">
<path d="M10.6251 12.8627H10.6256L10.6251 12.8617V12.8627Z" fill="#F7F7F7"/>
<path d="M10.6251 12.8618C10.6247 12.8509 10.6249 12.8563 10.6252 12.8617C10.9144 12.2412 11.4041 11.5347 12.2213 11.4347C12.6929 11.3769 13.1465 11.2141 13.5639 11.0005C14.1258 11.5414 14.8874 11.8356 15.727 11.8356C15.7693 11.8356 15.812 11.8348 15.8547 11.8334C16.7109 11.8034 17.5203 11.4677 18.0756 10.9125C19.7825 9.20552 19.3207 5.78303 19.3002 5.63818C19.2671 5.40423 19.0832 5.22043 18.8493 5.18734C18.7044 5.16685 15.2819 4.70499 13.575 6.412C13.0198 6.96719 12.6841 7.77663 12.6541 8.63285C12.6353 9.16868 12.7357 9.67558 12.942 10.1234C12.6642 10.2529 12.3774 10.347 12.0925 10.3818C11.4442 10.4612 10.8683 10.763 10.3972 11.2532C10.3836 11.1961 10.3699 11.1398 10.3563 11.0837C10.2276 10.554 10.1061 10.0537 10.1061 9.02542C10.1061 8.58583 10.1284 8.24294 10.1639 7.95278C10.9625 7.92199 11.7231 7.55983 12.3162 6.9235C12.9004 6.29683 13.2354 5.48711 13.2354 4.70195C13.2354 2.28793 10.4888 0.194438 10.3719 0.106501C10.1831 -0.0355308 9.92309 -0.0355308 9.73432 0.106501C9.61737 0.194438 6.87081 2.28793 6.87081 4.70195C6.87081 5.48715 7.20578 6.29683 7.78999 6.9235C8.17305 7.33445 8.62605 7.63098 9.11388 7.79805C9.07226 8.13002 9.0454 8.5241 9.0454 9.02538C9.0454 10.1467 9.1796 10.7321 9.31347 11.2841C8.83708 10.7759 8.251 10.4628 7.58946 10.3818C7.39174 10.3576 7.19552 10.3061 7.0037 10.2359C7.24694 9.76141 7.36642 9.214 7.34603 8.6328C7.31603 7.77663 6.98031 6.96719 6.42513 6.412C4.71817 4.70499 1.29568 5.16681 1.15083 5.18734C0.91688 5.22043 0.733083 5.40428 0.699989 5.63818C0.679505 5.78303 0.217691 9.20552 1.9246 10.9125C2.47979 11.4677 3.28928 11.8033 4.14545 11.8334C4.1882 11.8349 4.23071 11.8356 4.27309 11.8356C5.05919 11.8356 5.77694 11.5776 6.32645 11.1009C6.68495 11.2642 7.06633 11.3864 7.4606 11.4347C8.30636 11.5383 8.8045 12.222 9.08908 12.8619H4.00656C3.85623 12.8619 3.71293 12.9257 3.61239 13.0374C3.51184 13.1492 3.46337 13.2983 3.47912 13.4478L3.73046 15.8341C3.73046 15.8342 3.73046 15.8344 3.73046 15.8345L4.53986 23.5251C4.56831 23.7951 4.79593 24 5.06734 24H14.6143C14.8858 24 15.1134 23.7951 15.1418 23.5251L15.9512 15.8345C15.9512 15.8344 15.9512 15.8342 15.9512 15.8341L16.2026 13.4478C16.2183 13.2983 16.1699 13.1492 16.0693 13.0374C15.9687 12.9257 15.8254 12.8619 15.6751 12.8619H10.6252C10.6254 12.8671 10.6256 12.8723 10.6251 12.8618ZM13.7142 8.66997C13.7346 8.08783 13.963 7.52411 14.325 7.16205C15.152 6.33512 16.6274 6.17711 17.6344 6.17711C17.8881 6.17711 18.112 6.18714 18.2883 6.19904C18.3475 7.0758 18.3605 9.12728 17.3254 10.1624C16.9633 10.5245 16.3996 10.7529 15.8174 10.7733C15.3175 10.7905 14.861 10.6613 14.502 10.4053C15.2833 9.81433 15.8012 9.18564 15.8391 9.13905C16.0239 8.9118 15.9895 8.57772 15.7622 8.39294C15.5348 8.20816 15.2008 8.24256 15.0161 8.46986C14.8186 8.71272 14.3916 9.1601 13.8565 9.5628C13.7525 9.29214 13.703 8.98999 13.7142 8.66997ZM6.06583 9.73858C5.25634 9.18438 4.6742 8.48041 4.6652 8.4693C4.48032 8.24247 4.14657 8.20816 3.91942 8.39289C3.69217 8.57767 3.65767 8.91171 3.8425 9.139C3.88271 9.1885 4.4635 9.89379 5.32651 10.5137C4.99815 10.6972 4.60576 10.7878 4.18243 10.7733C3.60029 10.7529 3.03657 10.5245 2.67451 10.1624C1.63932 9.12724 1.6524 7.07547 1.71155 6.19909C2.58849 6.13993 4.63984 6.127 5.67489 7.16205C6.037 7.52411 6.26533 8.08783 6.28581 8.66992C6.2995 9.06128 6.22272 9.42607 6.06583 9.73858ZM7.93141 4.70185C7.93141 3.23602 9.39527 1.79264 10.0556 1.21613C10.8501 1.90641 12.1745 3.34159 12.1745 4.70185C12.1745 5.62107 11.4131 6.67562 10.3809 6.86505C10.5104 6.32786 10.6363 5.74459 10.6363 4.65849C10.6363 4.36557 10.3989 4.1281 10.1059 4.1281C9.81302 4.1281 9.57555 4.36557 9.57555 4.65849C9.57555 5.6867 9.45401 6.187 9.32538 6.71673C9.32337 6.72508 9.3213 6.73342 9.31929 6.74181C8.49944 6.39062 7.93141 5.49587 7.93141 4.70185ZM14.3824 20.6055H14.2165C13.9235 20.6055 13.6861 20.843 13.6861 21.1359C13.6861 21.4288 13.9235 21.6663 14.2165 21.6663H14.2708L14.1368 22.9392H5.54486L5.41089 21.6663H5.46512C5.75805 21.6663 5.99552 21.4288 5.99552 21.1359C5.99552 20.843 5.75805 20.6055 5.46512 20.6055H5.29923L4.84708 16.3093H14.8345L14.3824 20.6055ZM14.9462 15.2486H4.73542L4.59578 13.9226H15.0859L14.9462 15.2486Z" fill="#F7F7F7"/>
<path d="M7.89611 21.6663H8.6254C8.91832 21.6663 9.15579 21.4288 9.15579 21.1359C9.15579 20.843 8.91832 20.6055 8.6254 20.6055H7.89611C7.60319 20.6055 7.36572 20.843 7.36572 21.1359C7.36572 21.4288 7.60319 21.6663 7.89611 21.6663Z" fill="#F7F7F7"/>
<path d="M11.0564 21.6663H11.7857C12.0786 21.6663 12.3161 21.4288 12.3161 21.1359C12.3161 20.843 12.0786 20.6055 11.7857 20.6055H11.0564C10.7635 20.6055 10.526 20.843 10.526 21.1359C10.526 21.4288 10.7634 21.6663 11.0564 21.6663Z" fill="#F7F7F7"/>
</svg>
