<svg width="150" height="150" viewBox="0 0 150 150" fill="none" xmlns="http://www.w3.org/2000/svg">
<circle cx="75" cy="75" r="75" fill="#E8FFE4"/>
<path fill-rule="evenodd" clip-rule="evenodd" d="M43.6494 44.0029C43.223 43.8685 42.7851 44.1365 42.7107 44.5757C41.416 52.2138 41.3991 62.9412 45.3658 71.61C47.3447 75.9346 50.3098 79.7367 54.5957 82.4012C58.7286 84.9706 64.1242 86.5034 71.1166 86.3933C71.0809 86.3148 71.0451 86.236 71.0091 86.157C67.9535 79.4379 63.9687 70.6759 56.9303 65.7416C56.6957 65.5771 56.6388 65.2536 56.8033 65.019C56.9678 64.7844 57.2913 64.7275 57.5259 64.892C64.8048 69.995 68.8962 78.9988 71.9254 85.6651C71.9481 85.7149 71.9707 85.7647 71.9933 85.8143C75.3396 80.4762 76.344 75.612 75.762 71.2378C75.1503 66.6399 72.7767 62.5171 69.3924 58.9059C62.6116 51.6705 51.8699 46.5935 43.6494 44.0029ZM41.6877 44.4023C41.8676 43.3409 42.936 42.6902 43.9612 43.0133C52.2597 45.6285 63.1945 50.7752 70.1494 58.1964C73.633 61.9135 76.1421 66.2273 76.7905 71.101C77.4401 75.9833 76.2136 81.361 72.3463 87.18L72.1983 87.4027L71.9312 87.4114C64.3915 87.6576 58.5376 86.0735 54.0479 83.2823C49.5585 80.4914 46.47 76.5165 44.4224 72.0417C40.336 63.1116 40.3745 52.1501 41.6877 44.4023Z" fill="#0C600C"/>
<path fill-rule="evenodd" clip-rule="evenodd" d="M101.024 56.9666C101.265 56.8527 101.544 56.9763 101.623 57.2306C103.288 62.5947 104.334 70.2959 102.333 76.8974C101.335 80.1889 99.584 83.1971 96.7825 85.5176C94.1066 87.734 90.4449 89.3459 85.5026 89.9571C85.5062 89.945 85.5098 89.933 85.5135 89.9209C87.0584 84.7813 89.064 78.1089 93.6187 73.8912C93.8093 73.7147 93.8212 73.4167 93.6453 73.2255C93.4693 73.0343 93.1722 73.0224 92.9816 73.1989C88.2468 77.5834 86.1728 84.4563 84.6466 89.5404C81.8213 86.0839 80.6702 82.746 80.6648 79.6067C80.6591 76.2621 81.954 73.0822 84.026 70.1644C88.1793 64.3158 95.3811 59.6264 101.024 56.9666ZM102.52 56.9505C102.271 56.149 101.38 55.7574 100.624 56.1138C94.9147 58.8052 87.5481 63.5806 83.261 69.6178C81.1128 72.6429 79.7195 76.0111 79.7256 79.6083C79.7317 83.2134 81.1435 86.9877 84.4942 90.8159L84.6538 90.9983L84.8946 90.9737C90.3447 90.4177 94.4114 88.7035 97.3805 86.2442C100.349 83.7852 102.19 80.6064 103.231 77.1715C105.308 70.3203 104.215 62.411 102.52 56.9505Z" fill="#0C600C"/>
<path fill-rule="evenodd" clip-rule="evenodd" d="M44.789 103.474C44.6544 103.653 44.7086 103.903 44.9041 104.011C49.0277 106.29 55.1764 108.456 60.9391 107.934C63.8124 107.674 66.5809 106.746 68.9629 104.839C71.2381 103.017 73.1841 100.283 74.5256 96.3267C74.5151 96.3276 74.5046 96.3286 74.4941 96.3295C70.0097 96.7257 64.1879 97.24 59.9496 100.265C59.7723 100.392 59.5254 100.351 59.3983 100.174C59.2711 99.9969 59.3117 99.7508 59.4891 99.6242C63.895 96.4794 69.8931 95.943 74.3287 95.5528C71.9692 92.6448 69.4227 91.1323 66.8448 90.5948C64.0983 90.022 61.2662 90.5456 58.5175 91.7521C53.0076 94.1706 47.9323 99.2902 44.789 103.474ZM44.5216 104.7C43.9055 104.36 43.7351 103.561 44.1563 103.001C47.3369 98.7676 52.5109 93.5272 58.1983 91.0309C61.0482 89.78 64.0517 89.2075 67.0057 89.8235C69.9661 90.4408 72.8267 92.2415 75.4023 95.6442L75.5251 95.8063L75.464 95.9999C74.0816 100.383 71.9827 103.432 69.4582 105.453C66.934 107.474 64.0101 108.447 61.0117 108.719C55.031 109.261 48.7194 107.02 44.5216 104.7Z" fill="#0C600C"/>
<path d="M99.8592 100.615C99.8358 100.124 99.8203 99.5446 99.8125 98.8754C99.8125 98.1984 99.8125 97.432 99.8125 96.576C99.7347 96.5838 99.6413 96.5877 99.5324 96.5877C99.4312 96.5877 99.3495 96.5877 99.2873 96.5877C99.1472 96.5877 99.0188 96.5838 98.9021 96.576C98.7931 96.5682 98.6959 96.5449 98.6103 96.506C98.5247 96.4671 98.4585 96.4126 98.4118 96.3426C98.3651 96.2647 98.3418 96.1597 98.3418 96.0274C98.3418 95.6539 98.6219 95.4671 99.1822 95.4671C99.2678 95.4671 99.3728 95.4671 99.4974 95.4671C99.6219 95.4671 99.7269 95.4749 99.8125 95.4905C99.8125 95.0781 99.8203 94.7473 99.8358 94.4983C99.8514 94.2493 99.8786 94.0587 99.9176 93.9264C99.9642 93.7863 100.023 93.6968 100.093 93.6579C100.17 93.6112 100.268 93.5879 100.384 93.5879C100.509 93.5879 100.61 93.6307 100.688 93.7163C100.766 93.8019 100.824 93.9108 100.863 94.0431C100.91 94.1754 100.937 94.3232 100.945 94.4867C100.96 94.6501 100.968 94.8096 100.968 94.9652C100.968 95.0742 100.964 95.1753 100.956 95.2687C100.956 95.3543 100.956 95.4321 100.956 95.5021C101.065 95.471 101.178 95.4555 101.295 95.4555C101.412 95.4477 101.524 95.4438 101.633 95.4438C101.921 95.4438 102.143 95.4905 102.299 95.5839C102.454 95.6694 102.532 95.8134 102.532 96.0157C102.532 96.1402 102.505 96.2414 102.45 96.3192C102.396 96.3892 102.322 96.4437 102.229 96.4826C102.143 96.5215 102.038 96.5488 101.914 96.5643C101.797 96.5721 101.668 96.576 101.528 96.576C101.451 96.576 101.361 96.576 101.26 96.576C101.159 96.576 101.065 96.5682 100.98 96.5527C100.98 96.9651 100.98 97.3425 100.98 97.6849C100.98 98.0272 100.976 98.358 100.968 98.677C100.96 98.9883 100.952 99.2995 100.945 99.6108C100.937 99.9221 100.925 100.253 100.91 100.603C100.902 100.79 100.882 100.934 100.851 101.035C100.828 101.136 100.793 101.214 100.746 101.268C100.7 101.323 100.645 101.358 100.583 101.373C100.528 101.381 100.462 101.385 100.384 101.385C100.244 101.385 100.124 101.338 100.023 101.245C99.9292 101.144 99.8748 100.934 99.8592 100.615Z" fill="#0C600C"/>
<path d="M95.2603 96.4008C94.9724 96.4008 94.7117 96.4475 94.4783 96.5409C94.2526 96.6343 93.9958 96.7743 93.7079 96.9611C93.7079 97.1245 93.7079 97.3657 93.7079 97.6848C93.7079 97.996 93.704 98.3384 93.6962 98.7119C93.6885 99.0777 93.6807 99.4395 93.6729 99.7974C93.6651 100.155 93.6496 100.455 93.6262 100.696C93.6107 100.852 93.5912 100.976 93.5679 101.07C93.5523 101.155 93.5251 101.221 93.4861 101.268C93.455 101.315 93.4083 101.346 93.3461 101.362C93.2916 101.369 93.2177 101.373 93.1243 101.373C93.0309 101.373 92.9531 101.369 92.8909 101.362C92.8364 101.346 92.7897 101.319 92.7508 101.28C92.7119 101.233 92.6808 101.167 92.6574 101.081C92.6341 100.996 92.6146 100.879 92.5991 100.731C92.5835 100.591 92.5679 100.404 92.5524 100.171C92.5446 99.9375 92.5368 99.6846 92.529 99.4123C92.5212 99.1321 92.5135 98.852 92.5057 98.5719C92.5057 98.2839 92.5057 98.0194 92.5057 97.7781C92.5057 97.3813 92.5096 97.0584 92.5173 96.8093C92.5329 96.5603 92.5563 96.3386 92.5874 96.144C92.6341 95.8172 92.6963 95.611 92.7741 95.5254C92.852 95.4398 92.957 95.397 93.0893 95.397C93.2838 95.397 93.4278 95.4515 93.5212 95.5604C93.6223 95.6693 93.6846 95.8483 93.7079 96.0973C93.9958 95.8483 94.3032 95.6499 94.63 95.502C94.9646 95.3542 95.307 95.2803 95.6572 95.2803C95.9918 95.2803 96.2953 95.3581 96.5676 95.5137C96.8478 95.6693 97.0773 95.9222 97.2563 96.2724C97.3652 96.4825 97.4469 96.716 97.5014 96.9728C97.5559 97.2218 97.5948 97.4863 97.6181 97.7665C97.6259 97.891 97.6337 98.0155 97.6415 98.14C97.6493 98.2567 97.6532 98.3851 97.6532 98.5252C97.6609 98.6575 97.6648 98.8092 97.6648 98.9804C97.6648 99.1516 97.6648 99.3539 97.6648 99.5873C97.6648 99.8364 97.6609 100.07 97.6532 100.288C97.6454 100.506 97.622 100.696 97.5831 100.86C97.552 101.015 97.4936 101.14 97.408 101.233C97.3224 101.319 97.2057 101.362 97.0579 101.362C96.6999 101.362 96.5132 101.19 96.4976 100.848C96.4976 100.825 96.4976 100.727 96.4976 100.556C96.4976 100.377 96.4937 100.171 96.4859 99.9375C96.4859 99.7041 96.482 99.4667 96.4743 99.2255C96.4743 98.9843 96.4704 98.7858 96.4626 98.6302C96.4548 98.5057 96.4431 98.3734 96.4276 98.2334C96.4198 98.0855 96.4042 97.9377 96.3809 97.7898C96.3653 97.642 96.342 97.5019 96.3108 97.3696C96.2797 97.2295 96.2408 97.105 96.1941 96.9961C96.0852 96.7393 95.949 96.5759 95.7856 96.5059C95.6222 96.4358 95.4471 96.4008 95.2603 96.4008Z" fill="#0C600C"/>
<path d="M90.6002 101.419C90.4757 101.419 90.3745 101.4 90.2967 101.361C90.2267 101.314 90.1722 101.256 90.1333 101.186C90.0944 101.116 90.0672 101.034 90.0516 100.941C90.036 100.839 90.0244 100.734 90.0166 100.625C89.8221 100.867 89.5692 101.069 89.2579 101.232C88.9544 101.396 88.5653 101.478 88.0907 101.478C87.7872 101.478 87.4759 101.435 87.1569 101.349C86.8456 101.256 86.5616 101.1 86.3048 100.882C86.048 100.657 85.8379 100.357 85.6745 99.9835C85.5111 99.61 85.4294 99.1392 85.4294 98.5712C85.4294 98.1276 85.4839 97.7113 85.5928 97.3222C85.7017 96.9331 85.8651 96.5947 86.083 96.3067C86.3087 96.011 86.5888 95.7776 86.9234 95.6064C87.258 95.4352 87.651 95.3496 88.1023 95.3496C88.4992 95.3496 88.8533 95.4235 89.1645 95.5714C89.4758 95.7115 89.7559 95.9449 90.0049 96.2717C90.0049 96.1783 90.0088 96.085 90.0166 95.9916C90.0244 95.8904 90.0438 95.8009 90.075 95.7231C90.1139 95.6375 90.1722 95.5714 90.25 95.5247C90.3279 95.4702 90.4329 95.443 90.5652 95.443C90.6819 95.443 90.7909 95.4897 90.892 95.5831C90.9932 95.6764 91.0515 95.8788 91.0671 96.19C91.0904 96.6024 91.106 96.9721 91.1138 97.2989C91.1293 97.6257 91.1371 97.9642 91.1371 98.3144C91.1371 98.7424 91.1332 99.1353 91.1255 99.4933C91.1177 99.8512 91.0982 100.233 91.0671 100.637C91.0515 100.816 91.0282 100.96 90.9971 101.069C90.9737 101.17 90.9426 101.248 90.9037 101.302C90.8648 101.349 90.8181 101.38 90.7636 101.396C90.7091 101.411 90.6547 101.419 90.6002 101.419ZM89.9699 98.4544C89.9699 98.0498 89.9076 97.7191 89.7831 97.4623C89.6664 97.2055 89.5147 97.0071 89.3279 96.867C89.149 96.7192 88.9544 96.618 88.7443 96.5635C88.5342 96.5091 88.3397 96.4818 88.1607 96.4818C87.8806 96.4818 87.6393 96.5324 87.437 96.6336C87.2425 96.7347 87.083 96.8748 86.9585 97.0538C86.8339 97.225 86.7406 97.4312 86.6783 97.6724C86.6238 97.9058 86.5966 98.1626 86.5966 98.4428C86.5966 99.1275 86.7445 99.6333 87.0402 99.9602C87.3436 100.287 87.7522 100.45 88.2657 100.45C88.5692 100.45 88.826 100.4 89.0361 100.299C89.254 100.19 89.4291 100.046 89.5614 99.8668C89.7014 99.6878 89.8026 99.4777 89.8649 99.2365C89.9349 98.9875 89.9699 98.7268 89.9699 98.4544Z" fill="#0C600C"/>
<path d="M83.2627 100.696C83.2549 100.416 83.2471 100.089 83.2394 99.7154C83.2316 99.3419 83.2238 98.9372 83.216 98.5015C83.216 98.0657 83.2121 97.6066 83.2043 97.1241C83.2043 96.6417 83.2043 96.1476 83.2043 95.6418C83.2043 95.0893 83.2082 94.6146 83.216 94.2177C83.2238 93.8209 83.2433 93.4941 83.2744 93.2373C83.3133 92.9805 83.3716 92.7937 83.4495 92.677C83.5273 92.5525 83.6362 92.4902 83.7763 92.4902C83.9086 92.4902 84.0253 92.533 84.1265 92.6186C84.2276 92.7042 84.286 92.9027 84.3015 93.2139C84.3327 93.7742 84.3521 94.3578 84.3599 94.9648C84.3677 95.5639 84.3716 96.1553 84.3716 96.7389C84.3716 97.0891 84.3716 97.4276 84.3716 97.7544C84.3716 98.0735 84.3677 98.3925 84.3599 98.7116C84.3521 99.0228 84.3443 99.3419 84.3366 99.6687C84.3288 99.9955 84.3171 100.334 84.3015 100.684C84.2938 100.871 84.2743 101.015 84.2432 101.116C84.2198 101.217 84.1848 101.295 84.1381 101.349C84.0914 101.404 84.037 101.435 83.9747 101.443C83.9202 101.458 83.8541 101.466 83.7763 101.466C83.6362 101.466 83.5195 101.42 83.4261 101.326C83.3327 101.225 83.2783 101.015 83.2627 100.696Z" fill="#0C600C"/>
<path d="M77.7025 100.638C77.7025 100.824 77.6831 100.968 77.6441 101.07C77.613 101.171 77.5702 101.249 77.5158 101.303C77.4691 101.357 77.4107 101.389 77.3407 101.396C77.2784 101.412 77.2162 101.42 77.1539 101.42C76.9438 101.42 76.8037 101.373 76.7337 101.28C76.6715 101.186 76.6287 100.976 76.6053 100.649C76.5897 100.478 76.5781 100.229 76.5703 99.9023C76.5625 99.5755 76.5547 99.1864 76.547 98.7351C76.547 98.2838 76.5431 97.7857 76.5353 97.241C76.5353 96.6963 76.5353 96.1205 76.5353 95.5135C76.5353 95.2256 76.5703 94.9338 76.6403 94.6381C76.7104 94.3424 76.8426 94.074 77.0372 93.8327C77.2395 93.5915 77.5158 93.397 77.8659 93.2491C78.2239 93.1013 78.6869 93.0273 79.2549 93.0273C79.6518 93.0273 80.0292 93.0701 80.3871 93.1557C80.7451 93.2413 81.0602 93.3892 81.3326 93.5993C81.6049 93.8094 81.8228 94.0895 81.9862 94.4397C82.1496 94.7899 82.2314 95.2256 82.2314 95.747C82.2314 96.2917 82.1419 96.743 81.9629 97.101C81.7839 97.4589 81.531 97.7429 81.2042 97.953C80.8774 98.1631 80.4883 98.311 80.037 98.3966C79.5856 98.4822 79.0915 98.525 78.5546 98.525C78.4223 98.525 78.29 98.525 78.1577 98.525C78.0254 98.525 77.8776 98.5172 77.7142 98.5016L77.7025 100.638ZM81.0641 95.7236C81.0641 95.2023 80.9163 94.8093 80.6206 94.5447C80.3327 94.2802 79.8502 94.1479 79.1732 94.1479C78.9164 94.1479 78.6947 94.1712 78.5079 94.2179C78.3289 94.2568 78.1811 94.3307 78.0643 94.4397C77.9476 94.5409 77.8581 94.6809 77.7959 94.8599C77.7414 95.0389 77.7142 95.2645 77.7142 95.5369C77.7142 95.8015 77.7142 96.1049 77.7142 96.4473C77.7142 96.7819 77.7181 97.0971 77.7259 97.3928C77.9048 97.4006 78.1033 97.4045 78.3211 97.4045C78.5468 97.4045 78.7569 97.4045 78.9514 97.4045C79.1849 97.4045 79.4261 97.3889 79.6751 97.3578C79.9319 97.3266 80.1615 97.2566 80.3638 97.1477C80.5661 97.0309 80.7334 96.8636 80.8657 96.6458C80.998 96.4201 81.0641 96.1127 81.0641 95.7236Z" fill="#0C600C"/>
<path d="M109.664 111.399C109.618 111.267 109.586 111.119 109.571 110.956C109.563 110.792 109.559 110.59 109.559 110.349C109.559 110.178 109.559 110.045 109.559 109.952C109.567 109.851 109.571 109.765 109.571 109.695C109.571 109.617 109.571 109.543 109.571 109.473C109.579 109.396 109.583 109.29 109.583 109.158C109.583 108.886 109.575 108.613 109.559 108.341C109.551 108.061 109.513 107.812 109.443 107.594C109.373 107.368 109.264 107.186 109.116 107.045C108.968 106.905 108.754 106.835 108.474 106.835C107.999 106.835 107.629 107.061 107.365 107.512C107.1 107.964 106.941 108.683 106.886 109.672C106.871 109.983 106.863 110.267 106.863 110.524C106.863 110.781 106.847 111.002 106.816 111.189C106.785 111.368 106.727 111.508 106.641 111.609C106.563 111.711 106.431 111.761 106.244 111.761C106.073 111.761 105.949 111.718 105.871 111.633C105.793 111.539 105.735 111.403 105.696 111.224C105.665 111.045 105.645 110.827 105.637 110.571C105.637 110.314 105.626 110.014 105.602 109.672C105.579 109.298 105.54 108.94 105.486 108.598C105.439 108.256 105.357 107.956 105.241 107.699C105.132 107.435 104.98 107.224 104.785 107.069C104.599 106.913 104.357 106.835 104.062 106.835C103.781 106.835 103.564 106.905 103.408 107.045C103.26 107.178 103.151 107.357 103.081 107.582C103.011 107.8 102.968 108.049 102.953 108.329C102.945 108.602 102.941 108.878 102.941 109.158C102.941 109.298 102.941 109.403 102.941 109.473C102.949 109.536 102.953 109.594 102.953 109.648C102.953 109.703 102.953 109.773 102.953 109.859C102.961 109.944 102.964 110.076 102.964 110.255C102.964 110.512 102.957 110.734 102.941 110.921C102.933 111.107 102.906 111.267 102.859 111.399C102.805 111.555 102.731 111.652 102.638 111.691C102.544 111.722 102.459 111.738 102.381 111.738C102.14 111.738 101.984 111.652 101.914 111.481C101.844 111.31 101.805 111.061 101.797 110.734C101.797 110.555 101.793 110.357 101.786 110.139C101.786 109.913 101.786 109.641 101.786 109.322C101.786 109.166 101.786 109.03 101.786 108.913C101.786 108.796 101.786 108.683 101.786 108.575C101.793 108.466 101.797 108.357 101.797 108.248C101.805 108.131 101.813 107.999 101.821 107.851C101.844 107.376 101.929 106.999 102.077 106.719C102.225 106.431 102.4 106.213 102.603 106.065C102.805 105.917 103.023 105.824 103.256 105.785C103.49 105.738 103.704 105.715 103.898 105.715C104.318 105.715 104.672 105.777 104.96 105.902C105.248 106.026 105.482 106.19 105.661 106.392C105.847 106.594 105.984 106.824 106.069 107.081C106.163 107.337 106.225 107.598 106.256 107.863C106.287 107.606 106.349 107.353 106.443 107.104C106.544 106.847 106.688 106.621 106.875 106.427C107.069 106.225 107.318 106.061 107.622 105.937C107.925 105.812 108.299 105.75 108.742 105.75C108.952 105.75 109.166 105.773 109.384 105.82C109.61 105.859 109.816 105.952 110.003 106.1C110.19 106.248 110.345 106.462 110.47 106.742C110.602 107.014 110.68 107.384 110.703 107.851C110.711 107.999 110.715 108.131 110.715 108.248C110.723 108.357 110.726 108.466 110.726 108.575C110.734 108.683 110.738 108.796 110.738 108.913C110.738 109.03 110.738 109.166 110.738 109.322C110.738 109.641 110.734 109.913 110.726 110.139C110.726 110.357 110.726 110.555 110.726 110.734C110.726 110.882 110.719 111.018 110.703 111.142C110.695 111.267 110.672 111.372 110.633 111.458C110.594 111.543 110.536 111.613 110.458 111.668C110.388 111.714 110.283 111.738 110.143 111.738C110.011 111.738 109.909 111.714 109.839 111.668C109.769 111.613 109.711 111.524 109.664 111.399Z" fill="#0C600C"/>
<path d="M97.8933 105.831C98.3369 105.831 98.7337 105.901 99.0839 106.041C99.4341 106.173 99.7298 106.364 99.971 106.613C100.22 106.862 100.411 107.166 100.543 107.524C100.675 107.881 100.741 108.282 100.741 108.726C100.741 109.216 100.664 109.656 100.508 110.045C100.36 110.434 100.15 110.765 99.8776 111.037C99.613 111.309 99.294 111.519 98.9205 111.667C98.5547 111.815 98.154 111.889 97.7182 111.889C97.2436 111.889 96.8234 111.807 96.4576 111.644C96.0997 111.48 95.7962 111.259 95.5472 110.979C95.306 110.698 95.1231 110.375 94.9986 110.01C94.8741 109.644 94.8118 109.259 94.8118 108.854C94.8118 108.411 94.8819 108.006 95.0219 107.64C95.1698 107.267 95.376 106.948 95.6406 106.683C95.9129 106.411 96.2397 106.201 96.621 106.053C97.0023 105.905 97.4264 105.831 97.8933 105.831ZM97.7649 110.815C98.084 110.815 98.3563 110.761 98.582 110.652C98.8076 110.535 98.9905 110.383 99.1306 110.196C99.2784 110.01 99.3835 109.8 99.4457 109.566C99.5158 109.325 99.5508 109.076 99.5508 108.819C99.5508 108.555 99.5158 108.309 99.4457 108.084C99.3835 107.85 99.2823 107.648 99.1422 107.477C99.01 107.306 98.8349 107.173 98.617 107.08C98.4069 106.979 98.154 106.928 97.8583 106.928C97.5548 106.928 97.2902 106.979 97.0646 107.08C96.8389 107.181 96.6483 107.321 96.4926 107.5C96.3448 107.671 96.232 107.878 96.1541 108.119C96.0763 108.36 96.0374 108.621 96.0374 108.901C96.0374 109.469 96.1814 109.932 96.4693 110.29C96.765 110.64 97.1969 110.815 97.7649 110.815Z" fill="#0C600C"/>
<path d="M91.1792 105.831C91.6227 105.831 92.0196 105.901 92.3698 106.041C92.7199 106.173 93.0156 106.364 93.2569 106.613C93.5059 106.862 93.6965 107.166 93.8288 107.524C93.9611 107.881 94.0272 108.282 94.0272 108.726C94.0272 109.216 93.9494 109.656 93.7938 110.045C93.6459 110.434 93.4358 110.765 93.1635 111.037C92.8989 111.309 92.5799 111.519 92.2064 111.667C91.8406 111.815 91.4399 111.889 91.0041 111.889C90.5294 111.889 90.1092 111.807 89.7435 111.644C89.3856 111.48 89.0821 111.259 88.8331 110.979C88.5918 110.698 88.409 110.375 88.2845 110.01C88.16 109.644 88.0977 109.259 88.0977 108.854C88.0977 108.411 88.1678 108.006 88.3078 107.64C88.4557 107.267 88.6619 106.948 88.9265 106.683C89.1988 106.411 89.5256 106.201 89.9069 106.053C90.2882 105.905 90.7123 105.831 91.1792 105.831ZM91.0508 110.815C91.3698 110.815 91.6422 110.761 91.8679 110.652C92.0935 110.535 92.2764 110.383 92.4165 110.196C92.5643 110.01 92.6694 109.8 92.7316 109.566C92.8016 109.325 92.8367 109.076 92.8367 108.819C92.8367 108.555 92.8016 108.309 92.7316 108.084C92.6694 107.85 92.5682 107.648 92.4281 107.477C92.2959 107.306 92.1208 107.173 91.9029 107.08C91.6928 106.979 91.4399 106.928 91.1442 106.928C90.8407 106.928 90.5761 106.979 90.3505 107.08C90.1248 107.181 89.9342 107.321 89.7785 107.5C89.6307 107.671 89.5178 107.878 89.44 108.119C89.3622 108.36 89.3233 108.621 89.3233 108.901C89.3233 109.469 89.4673 109.932 89.7552 110.29C90.0509 110.64 90.4828 110.815 91.0508 110.815Z" fill="#0C600C"/>
<path d="M84.4193 108.878C84.3103 108.885 84.1975 108.893 84.0808 108.901C83.9718 108.901 83.859 108.901 83.7423 108.901C83.61 108.901 83.4777 108.901 83.3454 108.901C83.2131 108.901 83.0653 108.893 82.9019 108.878V111.247C82.9019 111.496 82.8396 111.652 82.7151 111.714C82.5984 111.768 82.4505 111.796 82.2716 111.796C82.1782 111.796 82.1043 111.788 82.0498 111.772C81.9953 111.765 81.9486 111.745 81.9097 111.714C81.8786 111.675 81.8514 111.621 81.828 111.551C81.8124 111.481 81.8008 111.383 81.793 111.259C81.7774 111.119 81.7658 110.916 81.758 110.652C81.7502 110.379 81.7424 110.029 81.7346 109.601C81.7346 109.173 81.7307 108.656 81.723 108.049C81.723 107.434 81.723 106.714 81.723 105.89C81.723 105.57 81.7619 105.263 81.8397 104.967C81.9175 104.664 82.0576 104.399 82.2599 104.174C82.4622 103.94 82.7346 103.753 83.0769 103.613C83.4271 103.473 83.8707 103.403 84.4076 103.403C84.7889 103.403 85.1585 103.446 85.5165 103.532C85.8822 103.617 86.2051 103.765 86.4853 103.975C86.7654 104.185 86.9911 104.469 87.1622 104.827C87.3334 105.185 87.419 105.633 87.419 106.17C87.419 106.886 87.2634 107.442 86.9521 107.839C86.6487 108.228 86.2285 108.504 85.6915 108.668L87.2556 110.815C87.3957 111.002 87.4657 111.193 87.4657 111.387C87.4657 111.543 87.4113 111.663 87.3023 111.749C87.2012 111.842 87.0728 111.889 86.9171 111.889C86.7459 111.889 86.5981 111.842 86.4736 111.749C86.3491 111.648 86.2324 111.519 86.1234 111.364L84.4193 108.878ZM86.2518 106.158C86.2518 105.621 86.0884 105.224 85.7616 104.967C85.4425 104.703 84.9328 104.571 84.2325 104.571C83.9757 104.571 83.7617 104.594 83.5905 104.641C83.4193 104.679 83.2832 104.757 83.182 104.874C83.0808 104.991 83.0069 105.154 82.9602 105.364C82.9213 105.567 82.9019 105.827 82.9019 106.146C82.9019 106.372 82.9019 106.637 82.9019 106.94C82.9019 107.244 82.9058 107.52 82.9135 107.769C83.0925 107.777 83.2909 107.78 83.5088 107.78C83.7345 107.78 83.9446 107.78 84.1391 107.78C84.357 107.78 84.5866 107.769 84.8278 107.745C85.0768 107.714 85.3064 107.644 85.5165 107.535C85.7266 107.419 85.9016 107.255 86.0417 107.045C86.1818 106.827 86.2518 106.531 86.2518 106.158Z" fill="#0C600C"/>
</svg>
